<svg width="50" height="51" viewBox="0 0 50 51" fill="none" xmlns="http://www.w3.org/2000/svg">
<rect y="0.5" width="50" height="50" rx="25" fill="#BB4166"/>
<path d="M33.4456 17.5299C32.1887 16.2616 30.6629 15.2918 28.9809 14.6922C27.2989 14.0926 25.5038 13.8785 23.728 14.0657C18.2243 14.6205 13.6953 19.0895 13.0805 24.5932C12.2557 31.8665 17.8793 38 24.9727 38C27.2373 38 29.4554 37.3574 31.3694 36.1469C33.2833 34.9365 34.8145 33.2077 35.7851 31.1616C36.265 30.1569 35.5451 29.0021 34.4354 29.0021C33.8805 29.0021 33.3557 29.3021 33.1157 29.7969C32.245 31.67 30.7558 33.1861 28.8986 34.0901C27.0414 34.9942 24.9295 35.231 22.9181 34.7608C19.5889 34.0259 16.9046 31.3116 16.1997 27.9824C15.9035 26.6661 15.9069 25.3 16.2098 23.9852C16.5127 22.6704 17.1073 21.4406 17.9496 20.3866C18.7919 19.3326 19.8604 18.4814 21.0761 17.8961C22.2917 17.3108 23.6234 17.0062 24.9727 17.005C27.4621 17.005 29.6815 18.0397 31.3012 19.6743L29.0367 21.9388C28.0919 22.8836 28.7518 24.5032 30.0864 24.5032H35.4702C36.295 24.5032 36.9698 23.8284 36.9698 23.0036V17.6198C36.9698 16.2852 35.3502 15.6103 34.4054 16.5551L33.4456 17.5299Z" fill="white"/>
</svg>
